<mxfile host="app.diagrams.net" modified="2021-06-27T08:51:30.486Z" agent="5.0 (X11)" etag="fFmgqxAm8RbNwdx2Hfa9" version="14.8.1" type="github">
  <diagram name="Page-1" id="c37626ed-c26b-45fb-9056-f9ebc6bb27b6">
    <mxGraphModel dx="1592" dy="962" grid="1" gridSize="10" guides="1" tooltips="1" connect="1" arrows="1" fold="1" page="1" pageScale="1" pageWidth="1100" pageHeight="850" background="none" math="0" shadow="0">
      <root>
        <mxCell id="0" />
        <mxCell id="1" parent="0" />
        <mxCell id="i_g6gHEMHeRlBMEb21og-68" value="" style="group" vertex="1" connectable="0" parent="1">
          <mxGeometry x="10" y="20" width="1070" height="730" as="geometry" />
        </mxCell>
        <mxCell id="i_g6gHEMHeRlBMEb21og-1" value="" style="shape=mxgraph.cisco.computers_and_peripherals.laptop;html=1;pointerEvents=1;dashed=0;fillColor=#f5f5f5;strokeColor=#666666;strokeWidth=2;verticalLabelPosition=bottom;verticalAlign=top;align=center;outlineConnect=0;gradientColor=#b3b3b3;" vertex="1" parent="i_g6gHEMHeRlBMEb21og-68">
          <mxGeometry x="688.5217391304348" y="202.01257861635222" width="186.08695652173913" height="91.82389937106919" as="geometry" />
        </mxCell>
        <mxCell id="i_g6gHEMHeRlBMEb21og-2" value="" style="shape=mxgraph.cisco.computers_and_peripherals.workstation;html=1;pointerEvents=1;dashed=0;fillColor=#f5f5f5;strokeColor=#666666;strokeWidth=2;verticalLabelPosition=bottom;verticalAlign=top;align=center;outlineConnect=0;gradientColor=#b3b3b3;" vertex="1" parent="i_g6gHEMHeRlBMEb21og-68">
          <mxGeometry x="186.08695652173913" y="192.8301886792453" width="158.17391304347825" height="101.00628930817611" as="geometry" />
        </mxCell>
        <mxCell id="i_g6gHEMHeRlBMEb21og-3" value="" style="shape=mxgraph.cisco.servers.fileserver;html=1;pointerEvents=1;dashed=0;fillColor=#f5f5f5;strokeColor=#666666;strokeWidth=2;verticalLabelPosition=bottom;verticalAlign=top;align=center;outlineConnect=0;gradientColor=#b3b3b3;" vertex="1" parent="i_g6gHEMHeRlBMEb21og-68">
          <mxGeometry x="493.1304347826087" width="111.65217391304348" height="119.37106918238995" as="geometry" />
        </mxCell>
        <mxCell id="i_g6gHEMHeRlBMEb21og-4" value="&lt;font style=&quot;font-size: 24px&quot; face=&quot;Times New Roman&quot;&gt;Server&lt;/font&gt;" style="text;html=1;align=center;verticalAlign=middle;resizable=0;points=[];autosize=1;strokeColor=none;" vertex="1" parent="i_g6gHEMHeRlBMEb21og-68">
          <mxGeometry x="214" y="293.8364779874214" width="80" height="30" as="geometry" />
        </mxCell>
        <mxCell id="i_g6gHEMHeRlBMEb21og-5" value="&lt;font style=&quot;font-size: 24px&quot; face=&quot;Times New Roman&quot;&gt;Client&lt;/font&gt;" style="text;html=1;align=center;verticalAlign=middle;resizable=0;points=[];autosize=1;strokeColor=none;" vertex="1" parent="i_g6gHEMHeRlBMEb21og-68">
          <mxGeometry x="735.0434782608696" y="293.8364779874214" width="70" height="30" as="geometry" />
        </mxCell>
        <mxCell id="i_g6gHEMHeRlBMEb21og-6" value="" style="endArrow=classic;startArrow=classic;html=1;entryX=0;entryY=1;entryDx=0;entryDy=0;entryPerimeter=0;" edge="1" parent="i_g6gHEMHeRlBMEb21og-68" target="i_g6gHEMHeRlBMEb21og-3">
          <mxGeometry width="50" height="50" relative="1" as="geometry">
            <mxPoint x="251.21739130434787" y="183.64779874213838" as="sourcePoint" />
            <mxPoint x="660.608695652174" y="229.559748427673" as="targetPoint" />
          </mxGeometry>
        </mxCell>
        <mxCell id="i_g6gHEMHeRlBMEb21og-7" value="&lt;font style=&quot;font-size: 18px&quot; face=&quot;Times New Roman&quot;&gt;Log in/ Log up&lt;/font&gt;" style="text;html=1;strokeColor=none;fillColor=none;align=center;verticalAlign=middle;whiteSpace=wrap;rounded=0;rotation=-15;" vertex="1" parent="i_g6gHEMHeRlBMEb21og-68">
          <mxGeometry x="324.54495652173915" y="124.66012578616352" width="139.56521739130434" height="18.364779874213838" as="geometry" />
        </mxCell>
        <mxCell id="i_g6gHEMHeRlBMEb21og-8" value="&lt;font style=&quot;font-size: 24px&quot; face=&quot;Times New Roman&quot;&gt;MongoDB&lt;/font&gt;" style="text;html=1;strokeColor=none;fillColor=none;align=center;verticalAlign=middle;whiteSpace=wrap;rounded=0;" vertex="1" parent="i_g6gHEMHeRlBMEb21og-68">
          <mxGeometry x="530.3478260869565" y="124.66012578616352" width="37.21739130434783" height="18.364779874213838" as="geometry" />
        </mxCell>
        <mxCell id="i_g6gHEMHeRlBMEb21og-9" value="" style="endArrow=classic;startArrow=classic;html=1;" edge="1" parent="i_g6gHEMHeRlBMEb21og-68" target="i_g6gHEMHeRlBMEb21og-3">
          <mxGeometry width="50" height="50" relative="1" as="geometry">
            <mxPoint x="772.2608695652174" y="192.8301886792453" as="sourcePoint" />
            <mxPoint x="539.6521739130435" y="119.37106918238995" as="targetPoint" />
          </mxGeometry>
        </mxCell>
        <mxCell id="i_g6gHEMHeRlBMEb21og-10" value="&lt;font style=&quot;font-size: 18px&quot; face=&quot;Times New Roman&quot;&gt;Log in/ Log up&lt;/font&gt;" style="text;html=1;strokeColor=none;fillColor=none;align=center;verticalAlign=middle;whiteSpace=wrap;rounded=0;rotation=30;" vertex="1" parent="i_g6gHEMHeRlBMEb21og-68">
          <mxGeometry x="642" y="124.66012578616352" width="106.19982608695652" height="18.364779874213838" as="geometry" />
        </mxCell>
        <mxCell id="i_g6gHEMHeRlBMEb21og-11" value="&lt;div align=&quot;center&quot;&gt;&lt;b&gt;&lt;font style=&quot;font-size: 24px&quot; face=&quot;Times New Roman&quot;&gt;Step 1: Authentication&lt;/font&gt;&lt;/b&gt;&lt;/div&gt;" style="text;html=1;strokeColor=none;fillColor=none;align=center;verticalAlign=middle;whiteSpace=wrap;rounded=0;" vertex="1" parent="i_g6gHEMHeRlBMEb21og-68">
          <mxGeometry x="400.0869565217391" y="174.46540880503144" width="241.91304347826087" height="18.364779874213838" as="geometry" />
        </mxCell>
        <mxCell id="i_g6gHEMHeRlBMEb21og-12" value="" style="aspect=fixed;pointerEvents=1;shadow=0;dashed=0;html=1;strokeColor=#666666;labelPosition=center;verticalLabelPosition=bottom;verticalAlign=top;align=center;fillColor=#f5f5f5;shape=mxgraph.azure.computer;gradientColor=#b3b3b3;" vertex="1" parent="i_g6gHEMHeRlBMEb21og-68">
          <mxGeometry x="186.08695652173913" y="385.6603773584906" width="121.25029746727861" height="109.12799592044875" as="geometry" />
        </mxCell>
        <mxCell id="i_g6gHEMHeRlBMEb21og-13" value="" style="aspect=fixed;html=1;points=[];align=center;image;fontSize=12;image=img/lib/mscae/User_Resource.svg;" vertex="1" parent="i_g6gHEMHeRlBMEb21og-68">
          <mxGeometry x="502.43478260869574" y="202.01257861635222" width="51.83579806221316" height="53.99107598164202" as="geometry" />
        </mxCell>
        <mxCell id="i_g6gHEMHeRlBMEb21og-16" value="" style="aspect=fixed;pointerEvents=1;shadow=0;dashed=0;html=1;strokeColor=#666666;labelPosition=center;verticalLabelPosition=bottom;verticalAlign=top;align=center;fillColor=#f5f5f5;shape=mxgraph.mscae.enterprise.wireless_connection;rotation=-45;gradientColor=#b3b3b3;" vertex="1" parent="i_g6gHEMHeRlBMEb21og-68">
          <mxGeometry x="268.11408695652176" y="348.9308176100629" width="61.1116777154513" height="72.75199728029918" as="geometry" />
        </mxCell>
        <mxCell id="i_g6gHEMHeRlBMEb21og-19" value="&lt;b&gt;&lt;font style=&quot;font-size: 24px&quot; face=&quot;Times New Roman&quot;&gt;Step 2: Generate connection TCP&lt;/font&gt;&lt;/b&gt;" style="text;html=1;align=center;verticalAlign=middle;resizable=0;points=[];autosize=1;strokeColor=none;" vertex="1" parent="i_g6gHEMHeRlBMEb21og-68">
          <mxGeometry x="353.5652173913044" y="413.20754716981133" width="360" height="30" as="geometry" />
        </mxCell>
        <mxCell id="i_g6gHEMHeRlBMEb21og-20" value="" style="aspect=fixed;pointerEvents=1;shadow=0;dashed=0;html=1;strokeColor=#666666;labelPosition=center;verticalLabelPosition=bottom;verticalAlign=top;align=center;fillColor=#f5f5f5;shape=mxgraph.azure.laptop;gradientColor=#b3b3b3;" vertex="1" parent="i_g6gHEMHeRlBMEb21og-68">
          <mxGeometry x="710.2287826086957" y="404.02515723270443" width="151.56969233384328" height="90.93999660037396" as="geometry" />
        </mxCell>
        <mxCell id="i_g6gHEMHeRlBMEb21og-21" value="&lt;font style=&quot;font-size: 24px&quot; face=&quot;Times New Roman&quot;&gt;Server is listening&lt;/font&gt;" style="text;html=1;align=center;verticalAlign=middle;resizable=0;points=[];autosize=1;strokeColor=none;" vertex="1" parent="i_g6gHEMHeRlBMEb21og-68">
          <mxGeometry x="153.52173913043478" y="500.4402515723271" width="190" height="30" as="geometry" />
        </mxCell>
        <mxCell id="i_g6gHEMHeRlBMEb21og-22" value="&lt;font style=&quot;font-size: 24px&quot; face=&quot;Times New Roman&quot;&gt;Client request connect&lt;br&gt;&lt;/font&gt;" style="text;html=1;align=center;verticalAlign=middle;resizable=0;points=[];autosize=1;strokeColor=none;" vertex="1" parent="i_g6gHEMHeRlBMEb21og-68">
          <mxGeometry x="680.7619130434782" y="505.0314465408805" width="230" height="30" as="geometry" />
        </mxCell>
        <mxCell id="i_g6gHEMHeRlBMEb21og-23" value="" style="aspect=fixed;pointerEvents=1;shadow=0;dashed=0;html=1;strokeColor=#666666;labelPosition=center;verticalLabelPosition=bottom;verticalAlign=top;align=center;shape=mxgraph.mscae.enterprise.not_allowed;fillColor=#f5f5f5;gradientColor=#b3b3b3;" vertex="1" parent="i_g6gHEMHeRlBMEb21og-68">
          <mxGeometry x="227.95652173913044" y="404.02515723270443" width="45.46999830018698" height="45.46999830018698" as="geometry" />
        </mxCell>
        <mxCell id="i_g6gHEMHeRlBMEb21og-24" value="" style="aspect=fixed;pointerEvents=1;shadow=0;dashed=0;html=1;strokeColor=#666666;labelPosition=center;verticalLabelPosition=bottom;verticalAlign=top;align=center;shape=mxgraph.mscae.enterprise.not_allowed;fillColor=#f5f5f5;gradientColor=#b3b3b3;" vertex="1" parent="i_g6gHEMHeRlBMEb21og-68">
          <mxGeometry x="764.501043478261" y="417.79874213836484" width="45.46999830018698" height="45.46999830018698" as="geometry" />
        </mxCell>
        <mxCell id="i_g6gHEMHeRlBMEb21og-25" value="" style="endArrow=classic;startArrow=none;html=1;" edge="1" parent="i_g6gHEMHeRlBMEb21og-68" source="i_g6gHEMHeRlBMEb21og-26">
          <mxGeometry width="50" height="50" relative="1" as="geometry">
            <mxPoint x="334.95652173913044" y="477.4842767295598" as="sourcePoint" />
            <mxPoint x="679.2173913043479" y="477.4842767295598" as="targetPoint" />
          </mxGeometry>
        </mxCell>
        <mxCell id="i_g6gHEMHeRlBMEb21og-26" value="" style="aspect=fixed;html=1;points=[];align=center;image;fontSize=12;image=img/lib/mscae/Functions.svg;" vertex="1" parent="i_g6gHEMHeRlBMEb21og-68">
          <mxGeometry x="465.2173913043478" y="449.93710691823907" width="69.19624341322456" height="63.657997620261774" as="geometry" />
        </mxCell>
        <mxCell id="i_g6gHEMHeRlBMEb21og-27" value="" style="endArrow=none;startArrow=classic;html=1;" edge="1" parent="i_g6gHEMHeRlBMEb21og-68" target="i_g6gHEMHeRlBMEb21og-26">
          <mxGeometry width="50" height="50" relative="1" as="geometry">
            <mxPoint x="334.95652173913044" y="477.4842767295598" as="sourcePoint" />
            <mxPoint x="679.217391304348" y="477.4842767295598" as="targetPoint" />
          </mxGeometry>
        </mxCell>
        <mxCell id="i_g6gHEMHeRlBMEb21og-28" value="&lt;font style=&quot;font-size: 24px&quot; face=&quot;Times New Roman&quot;&gt;No connection&lt;/font&gt;" style="text;html=1;align=center;verticalAlign=middle;resizable=0;points=[];autosize=1;strokeColor=none;" vertex="1" parent="i_g6gHEMHeRlBMEb21og-68">
          <mxGeometry x="428" y="505.0314465408805" width="160" height="30" as="geometry" />
        </mxCell>
        <mxCell id="i_g6gHEMHeRlBMEb21og-29" value="" style="endArrow=classic;html=1;exitX=0.433;exitY=1.1;exitDx=0;exitDy=0;exitPerimeter=0;" edge="1" parent="i_g6gHEMHeRlBMEb21og-68" source="i_g6gHEMHeRlBMEb21og-4">
          <mxGeometry width="50" height="50" relative="1" as="geometry">
            <mxPoint x="437.30434782608694" y="532.5786163522014" as="sourcePoint" />
            <mxPoint x="246.56521739130434" y="381.9874213836478" as="targetPoint" />
          </mxGeometry>
        </mxCell>
        <mxCell id="i_g6gHEMHeRlBMEb21og-30" value="" style="endArrow=classic;html=1;entryX=0.5;entryY=0;entryDx=0;entryDy=0;entryPerimeter=0;" edge="1" parent="i_g6gHEMHeRlBMEb21og-68" target="i_g6gHEMHeRlBMEb21og-20">
          <mxGeometry width="50" height="50" relative="1" as="geometry">
            <mxPoint x="788.0782608695653" y="328.72955974842773" as="sourcePoint" />
            <mxPoint x="949.0434782608696" y="312.20125786163527" as="targetPoint" />
          </mxGeometry>
        </mxCell>
        <mxCell id="i_g6gHEMHeRlBMEb21og-31" value="" style="aspect=fixed;pointerEvents=1;shadow=0;dashed=0;html=1;strokeColor=#666666;labelPosition=center;verticalLabelPosition=bottom;verticalAlign=top;align=center;fillColor=#f5f5f5;shape=mxgraph.azure.computer;gradientColor=#b3b3b3;" vertex="1" parent="i_g6gHEMHeRlBMEb21og-68">
          <mxGeometry x="174.45652173913044" y="619.811320754717" width="121.25029746727861" height="109.12799592044875" as="geometry" />
        </mxCell>
        <mxCell id="i_g6gHEMHeRlBMEb21og-32" value="" style="pointerEvents=1;shadow=0;dashed=0;html=1;strokeColor=#666666;labelPosition=center;verticalLabelPosition=bottom;verticalAlign=top;align=center;fillColor=#f5f5f5;shape=mxgraph.mscae.intune.end_protection;gradientColor=#b3b3b3;" vertex="1" parent="i_g6gHEMHeRlBMEb21og-68">
          <mxGeometry x="271.68695652173915" y="606.0377358490566" width="35.356521739130436" height="32.138364779874216" as="geometry" />
        </mxCell>
        <mxCell id="i_g6gHEMHeRlBMEb21og-33" value="" style="aspect=fixed;pointerEvents=1;shadow=0;dashed=0;html=1;strokeColor=#666666;labelPosition=center;verticalLabelPosition=bottom;verticalAlign=top;align=center;fillColor=#f5f5f5;shape=mxgraph.azure.laptop;gradientColor=#b3b3b3;" vertex="1" parent="i_g6gHEMHeRlBMEb21og-68">
          <mxGeometry x="694.7277391304348" y="628.9937106918239" width="166.72938976712564" height="100.03399626041137" as="geometry" />
        </mxCell>
        <mxCell id="i_g6gHEMHeRlBMEb21og-34" value="" style="pointerEvents=1;shadow=0;dashed=0;html=1;strokeColor=#666666;labelPosition=center;verticalLabelPosition=bottom;verticalAlign=top;align=center;fillColor=#f5f5f5;shape=mxgraph.mscae.intune.end_protection;gradientColor=#b3b3b3;" vertex="1" parent="i_g6gHEMHeRlBMEb21og-68">
          <mxGeometry x="825.9097391304348" y="619.811320754717" width="30.09026086956522" height="27.547169811320757" as="geometry" />
        </mxCell>
        <mxCell id="i_g6gHEMHeRlBMEb21og-36" value="" style="endArrow=classic;html=1;" edge="1" parent="i_g6gHEMHeRlBMEb21og-68">
          <mxGeometry width="50" height="50" relative="1" as="geometry">
            <mxPoint x="307.04347826086956" y="656.5408805031446" as="sourcePoint" />
            <mxPoint x="697.8260869565217" y="656.5408805031446" as="targetPoint" />
          </mxGeometry>
        </mxCell>
        <mxCell id="i_g6gHEMHeRlBMEb21og-37" value="" style="endArrow=classic;html=1;exitX=-0.036;exitY=0.727;exitDx=0;exitDy=0;exitPerimeter=0;" edge="1" parent="i_g6gHEMHeRlBMEb21og-68" source="i_g6gHEMHeRlBMEb21og-33">
          <mxGeometry width="50" height="50" relative="1" as="geometry">
            <mxPoint x="688.5217391304348" y="720.8176100628931" as="sourcePoint" />
            <mxPoint x="302.3913043478261" y="702.4528301886793" as="targetPoint" />
          </mxGeometry>
        </mxCell>
        <mxCell id="i_g6gHEMHeRlBMEb21og-38" value="&lt;font style=&quot;font-size: 24px&quot; face=&quot;Times New Roman&quot;&gt;TCP connected&lt;/font&gt;" style="text;html=1;align=center;verticalAlign=middle;resizable=0;points=[];autosize=1;strokeColor=none;" vertex="1" parent="i_g6gHEMHeRlBMEb21og-68">
          <mxGeometry x="416.872" y="665.7232704402516" width="160" height="30" as="geometry" />
        </mxCell>
        <mxCell id="i_g6gHEMHeRlBMEb21og-39" value="&lt;font style=&quot;font-size: 24px&quot; face=&quot;Times New Roman&quot;&gt;&lt;b&gt;&lt;font style=&quot;font-size: 24px&quot;&gt;Step 3: Transfer data&lt;/font&gt;&lt;/b&gt;&lt;/font&gt;" style="text;html=1;align=center;verticalAlign=middle;resizable=0;points=[];autosize=1;strokeColor=none;" vertex="1" parent="i_g6gHEMHeRlBMEb21og-68">
          <mxGeometry x="381.47826086956525" y="619.811320754717" width="230" height="30" as="geometry" />
        </mxCell>
        <mxCell id="i_g6gHEMHeRlBMEb21og-43" value="" style="aspect=fixed;pointerEvents=1;shadow=0;dashed=0;html=1;strokeColor=#666666;labelPosition=center;verticalLabelPosition=bottom;verticalAlign=top;align=center;shape=mxgraph.azure.startup_task;fillColor=#f5f5f5;gradientColor=#b3b3b3;" vertex="1" parent="i_g6gHEMHeRlBMEb21og-68">
          <mxGeometry x="307.04347826086956" y="628.9937106918239" width="26.190719020907704" height="27.28199898011219" as="geometry" />
        </mxCell>
        <mxCell id="i_g6gHEMHeRlBMEb21og-44" value="" style="aspect=fixed;pointerEvents=1;shadow=0;dashed=0;html=1;strokeColor=#666666;labelPosition=center;verticalLabelPosition=bottom;verticalAlign=top;align=center;shape=mxgraph.azure.startup_task;fillColor=#f5f5f5;gradientColor=#b3b3b3;" vertex="1" parent="i_g6gHEMHeRlBMEb21og-68">
          <mxGeometry x="660.608695652174" y="675.6677987421384" width="25.46319904810471" height="26.527197008329086" as="geometry" />
        </mxCell>
        <mxCell id="i_g6gHEMHeRlBMEb21og-46" value="Server" style="swimlane;fontStyle=0;childLayout=stackLayout;horizontal=1;startSize=26;horizontalStack=0;resizeParent=1;resizeParentMax=0;resizeLast=0;collapsible=1;marginBottom=0;" vertex="1" parent="i_g6gHEMHeRlBMEb21og-68">
          <mxGeometry y="619.811320754717" width="167.47826086956522" height="97.62264150943398" as="geometry" />
        </mxCell>
        <mxCell id="i_g6gHEMHeRlBMEb21og-47" value="Receive data screen, mess,..." style="text;strokeColor=none;fillColor=none;align=left;verticalAlign=top;spacingLeft=4;spacingRight=4;overflow=hidden;rotatable=0;points=[[0,0.5],[1,0.5]];portConstraint=eastwest;" vertex="1" parent="i_g6gHEMHeRlBMEb21og-46">
          <mxGeometry y="26" width="167.47826086956522" height="23.87421383647799" as="geometry" />
        </mxCell>
        <mxCell id="i_g6gHEMHeRlBMEb21og-48" value="Send data signal (mess,cmd,...)" style="text;strokeColor=none;fillColor=none;align=left;verticalAlign=top;spacingLeft=4;spacingRight=4;overflow=hidden;rotatable=0;points=[[0,0.5],[1,0.5]];portConstraint=eastwest;" vertex="1" parent="i_g6gHEMHeRlBMEb21og-46">
          <mxGeometry y="49.87421383647799" width="167.47826086956522" height="23.87421383647799" as="geometry" />
        </mxCell>
        <mxCell id="i_g6gHEMHeRlBMEb21og-49" value="Show data sreen" style="text;strokeColor=none;fillColor=none;align=left;verticalAlign=top;spacingLeft=4;spacingRight=4;overflow=hidden;rotatable=0;points=[[0,0.5],[1,0.5]];portConstraint=eastwest;" vertex="1" parent="i_g6gHEMHeRlBMEb21og-46">
          <mxGeometry y="73.74842767295598" width="167.47826086956522" height="23.87421383647799" as="geometry" />
        </mxCell>
        <mxCell id="i_g6gHEMHeRlBMEb21og-50" value="" style="pointerEvents=1;shadow=0;dashed=0;html=1;strokeColor=#666666;labelPosition=center;verticalLabelPosition=bottom;verticalAlign=top;align=center;fillColor=#f5f5f5;shape=mxgraph.mscae.intune.company_portal;gradientColor=#b3b3b3;" vertex="1" parent="i_g6gHEMHeRlBMEb21og-68">
          <mxGeometry x="195.3913043478261" y="638.1761006289308" width="83.73913043478261" height="56.9308176100629" as="geometry" />
        </mxCell>
        <mxCell id="i_g6gHEMHeRlBMEb21og-51" value="" style="pointerEvents=1;shadow=0;dashed=0;html=1;strokeColor=#666666;labelPosition=center;verticalLabelPosition=bottom;verticalAlign=top;align=center;fillColor=#f5f5f5;shape=mxgraph.mscae.intune.company_portal;gradientColor=#b3b3b3;" vertex="1" parent="i_g6gHEMHeRlBMEb21og-68">
          <mxGeometry x="738.8954782608696" y="645.5220125786163" width="83.73913043478261" height="56.9308176100629" as="geometry" />
        </mxCell>
        <mxCell id="i_g6gHEMHeRlBMEb21og-52" value="Client" style="swimlane;fontStyle=0;childLayout=stackLayout;horizontal=1;startSize=30;horizontalStack=0;resizeParent=1;resizeParentMax=0;resizeLast=0;collapsible=1;marginBottom=0;" vertex="1" parent="i_g6gHEMHeRlBMEb21og-68">
          <mxGeometry x="885.4575652173913" y="628.9937106918239" width="184.5424347826087" height="101.62264150943398" as="geometry" />
        </mxCell>
        <mxCell id="i_g6gHEMHeRlBMEb21og-53" value="Send data screen, mess,..." style="text;strokeColor=none;fillColor=none;align=left;verticalAlign=top;spacingLeft=4;spacingRight=4;overflow=hidden;rotatable=0;points=[[0,0.5],[1,0.5]];portConstraint=eastwest;" vertex="1" parent="i_g6gHEMHeRlBMEb21og-52">
          <mxGeometry y="30" width="184.5424347826087" height="23.87421383647799" as="geometry" />
        </mxCell>
        <mxCell id="i_g6gHEMHeRlBMEb21og-54" value="Receive data signal (mess,cmd,...)" style="text;strokeColor=none;fillColor=none;align=left;verticalAlign=top;spacingLeft=4;spacingRight=4;overflow=hidden;rotatable=0;points=[[0,0.5],[1,0.5]];portConstraint=eastwest;" vertex="1" parent="i_g6gHEMHeRlBMEb21og-52">
          <mxGeometry y="53.87421383647799" width="184.5424347826087" height="23.87421383647799" as="geometry" />
        </mxCell>
        <mxCell id="i_g6gHEMHeRlBMEb21og-55" value="Run cmd, shutdown, sleep , restart&#xa;" style="text;strokeColor=none;fillColor=none;align=left;verticalAlign=top;spacingLeft=4;spacingRight=4;overflow=hidden;rotatable=0;points=[[0,0.5],[1,0.5]];portConstraint=eastwest;" vertex="1" parent="i_g6gHEMHeRlBMEb21og-52">
          <mxGeometry y="77.74842767295598" width="184.5424347826087" height="23.87421383647799" as="geometry" />
        </mxCell>
        <mxCell id="i_g6gHEMHeRlBMEb21og-65" value="" style="endArrow=classic;html=1;" edge="1" parent="i_g6gHEMHeRlBMEb21og-68">
          <mxGeometry width="50" height="50" relative="1" as="geometry">
            <mxPoint x="241.91304347826087" y="533.496855345912" as="sourcePoint" />
            <mxPoint x="241.91304347826087" y="615.2201257861636" as="targetPoint" />
          </mxGeometry>
        </mxCell>
        <mxCell id="i_g6gHEMHeRlBMEb21og-66" value="" style="endArrow=classic;html=1;entryX=0.5;entryY=0;entryDx=0;entryDy=0;entryPerimeter=0;" edge="1" parent="i_g6gHEMHeRlBMEb21og-68" target="i_g6gHEMHeRlBMEb21og-33">
          <mxGeometry width="50" height="50" relative="1" as="geometry">
            <mxPoint x="781.5652173913044" y="542.6792452830189" as="sourcePoint" />
            <mxPoint x="251.21739130434787" y="624.4025157232705" as="targetPoint" />
          </mxGeometry>
        </mxCell>
      </root>
    </mxGraphModel>
  </diagram>
</mxfile>
